<?xml version="1.0" encoding="UTF-8" standalone="no"?>
<svg
   version="1.1"
   width="30"
   height="30"
   id="svg9"
   sodipodi:docname="ytw30.svg"
   inkscape:version="1.4 (e7c3feb1, 2024-10-09)"
   xmlns:inkscape="http://www.inkscape.org/namespaces/inkscape"
   xmlns:sodipodi="http://sodipodi.sourceforge.net/DTD/sodipodi-0.dtd"
   xmlns="http://www.w3.org/2000/svg"
   xmlns:svg="http://www.w3.org/2000/svg">
  <defs
     id="defs9" />
  <sodipodi:namedview
     id="namedview9"
     pagecolor="#ffffff"
     bordercolor="#000000"
     borderopacity="0.25"
     inkscape:showpageshadow="2"
     inkscape:pageopacity="0.0"
     inkscape:pagecheckerboard="0"
     inkscape:deskcolor="#d1d1d1"
     inkscape:zoom="3.3633333"
     inkscape:cx="150.14866"
     inkscape:cy="78.64222"
     inkscape:window-width="1688"
     inkscape:window-height="1188"
     inkscape:window-x="440"
     inkscape:window-y="76"
     inkscape:window-maximized="0"
     inkscape:current-layer="svg9" />
  <path
     d="m 4.3314968,1.0270252 c 0.1145352,-7.125e-4 0.1145352,-7.125e-4 0.2313841,-0.00144 0.083373,-4.66e-5 0.1667474,-9.32e-5 0.2526476,-1.412e-4 0.088978,-4.102e-4 0.1779579,-8.204e-4 0.2696334,-0.00124 0.2989405,-0.00125 0.5978784,-0.00183 0.8968209,-0.0024 0.2140533,-7.397e-4 0.4281066,-0.00151 0.6421595,-0.00232 0.703807,-0.00246 1.4076145,-0.00389 2.1114246,-0.00522 0.242412,-5.017e-4 0.484824,-0.00101 0.727236,-0.00151 1.0086611,-0.00202 2.0173201,-0.00379 3.0259811,-0.00483 0.26165,-2.742e-4 0.523299,-5.514e-4 0.784947,-8.335e-4 0.06504,-6.99e-5 0.130057,-1.397e-4 0.197054,-2.117e-4 1.05204,-0.00118 2.104063,-0.00429 3.156093,-0.008195 1.081399,-0.00398 2.162788,-0.006139 3.244196,-0.006666 0.606636,-3.4147e-4 1.213249,-0.001462 1.819879,-0.004502 0.571252,-0.002822 1.142464,-0.003404 1.713721,-0.002304 0.20902,2.06e-5 0.418044,-7.5212e-4 0.627059,-0.002401 1.5253,-0.0113744 2.722722,0.084563 3.861473,1.19750589 0.746011,0.8810413 1.002113,1.8977467 0.997108,3.024916 3.58e-4,0.086617 7.17e-4,0.1732333 0.0012,0.2624749 9.32e-4,0.2887023 5.93e-4,0.577387 2.21e-4,0.8660904 4.07e-4,0.2076303 8.93e-4,0.4152605 0.0014,0.6228905 0.0013,0.5630031 0.0014,1.1260003 10e-4,1.6890044 -1.01e-4,0.470565 3.58e-4,0.9411288 8.07e-4,1.4116931 0.0012,1.174067 0.001,2.348131 4.16e-4,3.522197 -4.85e-4,1.017621 5.69e-4,2.035234 0.0023,3.052854 0.0017,1.046785 0.0025,2.093567 0.0022,3.140355 -1.69e-4,0.586926 7.6e-5,1.173843 0.0014,1.760768 0.0013,0.552268 0.001,1.10452 -2.26e-4,1.656788 -2.19e-4,0.202097 3.4e-5,0.404194 8.09e-4,0.606289 0.0058,1.634867 -0.07645,2.882888 -1.230471,4.131479 -0.863959,0.825435 -1.920885,1.035519 -3.078642,1.031296 -0.130052,6.55e-4 -0.130052,6.55e-4 -0.262731,0.0013 -0.288428,0.0012 -0.576839,10e-4 -0.865268,8.43e-4 -0.207663,5.61e-4 -0.415324,0.0012 -0.622985,0.0019 -0.56269,0.0017 -1.125373,0.0021 -1.688063,0.0022 -0.351955,9.4e-5 -0.703906,5.62e-4 -1.055862,0.001 -1.165649,0.0017 -2.331296,0.0025 -3.496946,0.0023 -0.06272,-8e-6 -0.12545,-1.5e-5 -0.190076,-2.3e-5 -0.06281,-8e-6 -0.125602,-1.5e-5 -0.190306,-2.3e-5 -1.017174,-7.6e-5 -2.034335,0.0017 -3.051504,0.0044 -1.04669,0.0027 -2.093377,0.0039 -3.140071,0.0038 -0.5867291,-4.6e-5 -1.1734431,4.69e-4 -1.7601686,0.0024 -0.5521092,0.0018 -1.1041899,0.0019 -1.6563001,4.69e-4 -0.2019207,-1.88e-4 -0.4038431,2.8e-4 -0.6057604,0.0014 -1.5130909,0.0079 -2.8583133,-0.06162 -4.021069,-1.152872 -0.5835551,-0.620616 -1.04745367,-1.40594 -1.04966537,-2.27494 -4.175e-4,-0.07641 -8.352e-4,-0.152821 -0.00127,-0.231546 1.73e-5,-0.08343 3.46e-5,-0.166867 5.24e-5,-0.252828 -3.445e-4,-0.08904 -6.889e-4,-0.178078 -0.00104,-0.269814 -0.00104,-0.299133 -0.00139,-0.598264 -0.00175,-0.8974 -5.869e-4,-0.214183 -0.00121,-0.428364 -0.00187,-0.642546 -0.00197,-0.704134 -0.00294,-1.408267 -0.00387,-2.112403 -3.792e-4,-0.24245 -7.649e-4,-0.4849 -0.00116,-0.72735 -0.00158,-1.008641 -0.00295,-2.017281 -0.00363,-3.025924 -1.789e-4,-0.26163 -3.589e-4,-0.52326 -5.421e-4,-0.784891 -4.53e-5,-0.06503 -9.06e-5,-0.130047 -1.373e-4,-0.197042 -7.77e-4,-1.052515 -0.00315,-2.105018 -0.0062,-3.157529 -0.0031,-1.081573 -0.00475,-2.16314 -0.00509,-3.24472 -1.1e-4,-0.6067529 -9.446e-4,-1.213602 -0.003306,-1.8204626 -0.002184,-0.5712421 -0.002576,-1.1424581 -0.001614,-1.7137031 4.64e-5,-0.209227 -5.443e-4,-0.4184591 -0.00183,-0.6276859 C 0.89459523,4.4589083 0.94196133,3.2712919 1.8854107,2.1631197 2.5479166,1.5323905 3.3954443,1.0301291 4.3314968,1.0270252 Z"
     fill="#462bfd"
     id="path1"
     style="stroke-width:0.0936435" />
  <path
     d="m 15.7094,12.319344 c 0.49115,0.284329 0.850729,0.60475 1.165173,1.076467 0.04046,0.06021 0.08091,0.120421 0.122591,0.182458 0.365138,0.662773 0.338096,1.426528 0.252137,2.157685 -0.241709,0.752217 -0.686998,1.338595 -1.358392,1.755109 -0.08791,0.05551 -0.175831,0.111011 -0.266409,0.168197 -0.600953,0.328489 -1.265676,0.271049 -1.935121,0.229627 -0.357165,-0.105306 -0.357165,-0.105306 -0.655776,-0.280817 -0.06812,-0.03656 -0.13622,-0.07312 -0.206393,-0.110791 -0.703071,-0.410565 -1.025811,-0.962539 -1.327653,-1.70282 -0.153332,-0.888599 -0.129394,-1.66078 0.360822,-2.4279 0.89534,-1.241832 2.432552,-1.704835 3.849021,-1.047215 z"
     fill="#462bfb"
     id="path2"
     style="stroke-width:0.0936435" />
  <path
     d="m 16.312479,11.336484 c 0.98147,0.644001 1.808264,1.537508 2.061008,2.714567 0.120511,1.376689 -0.03628,2.553868 -0.936823,3.650624 -0.439749,0.46036 -0.910512,0.78878 -1.498914,1.029664 -0.05335,0.02341 -0.106713,0.04682 -0.16168,0.07093 -0.474396,0.196264 -0.889878,0.260695 -1.401641,0.256685 -0.07268,-6e-5 -0.145367,-9.3e-5 -0.220253,-1.87e-4 -0.691358,-0.01764 -1.248894,-0.207623 -1.870032,-0.514649 0,-0.06178 0,-0.12356 0,-0.187211 -0.05024,-0.0058 -0.100467,-0.01158 -0.152233,-0.01756 -0.756614,-0.258631 -1.200564,-1.043796 -1.56515,-1.707208 -0.38994,-0.885253 -0.400685,-1.98888 -0.163945,-2.918965 0.427777,-1.090006 1.164405,-1.962596 2.232637,-2.458613 1.120102,-0.482849 2.585334,-0.485757 3.677026,0.0819 z m -3.653604,1.216875 c -0.100478,0.06757 -0.200951,0.135143 -0.304468,0.204763 -0.698721,0.714018 -0.949306,1.415503 -0.939749,2.394259 0.06195,0.711678 0.347387,1.482892 0.869486,1.98766 0.925575,0.685357 1.570418,0.817134 2.716784,0.748846 0.687724,-0.122989 1.318269,-0.585443 1.743367,-1.128753 0.511907,-0.795819 0.63489,-1.586381 0.505006,-2.521871 -0.233919,-0.763055 -0.648128,-1.336997 -1.311551,-1.77851 -0.06026,-0.04042 -0.12052,-0.08085 -0.182607,-0.122492 -0.958374,-0.52713 -2.219506,-0.388073 -3.096268,0.216098 z"
     fill="#f3f2fd"
     id="path3"
     style="stroke-width:0.0936435" />
  <path
     d="m 20.153449,11.149272 c 0.188293,0.143084 0.270615,0.2252 0.314616,0.459835 -6.54e-4,0.06749 -0.0014,0.134986 -0.0019,0.204524 4e-5,0.07694 8.1e-5,0.153875 1.23e-4,0.233145 -0.0017,0.124605 -0.0017,0.124605 -0.0036,0.251726 7.16e-4,0.177401 0.0014,0.354801 0.0023,0.532201 -2.03e-4,0.278503 -0.0013,0.556944 -0.0039,0.835436 -0.0082,1.121911 0.005,1.948408 0.629085,2.912267 0.03092,0.09267 0.06183,0.18534 0.09367,0.280818 0.165435,0.09446 0.165435,0.09446 0.374728,0.187211 0.09082,0.06178 0.181627,0.12356 0.275193,0.187212 0.666676,0.435026 1.28492,0.446317 2.066863,0.374423 0.466262,-0.133203 0.840384,-0.3535 1.217867,-0.65524 0.06183,0 0.123662,0 0.187366,0 0.03478,-0.07529 0.03478,-0.07529 0.07026,-0.15211 0.117104,-0.222314 0.117104,-0.222314 0.30447,-0.462178 0.579836,-0.995783 0.411532,-2.367362 0.424541,-3.48478 0.0032,-0.245559 0.0073,-0.49108 0.01166,-0.736621 4.95e-4,-0.07566 0.001,-0.151313 0.0014,-0.229262 0.0097,-0.53026 0.0097,-0.53026 0.218069,-0.738607 0.379657,-0.03228 0.519706,-0.02823 0.84314,0.187212 0.03695,0.181345 0.03695,0.181345 0.03935,0.405801 0.0022,0.126208 0.0022,0.126208 0.0044,0.254966 2e-5,0.09145 3.8e-5,0.182898 5.7e-5,0.277119 0.001,0.14175 0.001,0.14175 0.002,0.286363 10e-4,0.200893 0.0014,0.401791 8.57e-4,0.602685 -9e-5,0.303705 0.0039,0.60718 0.0079,0.910852 0.0076,1.307349 -0.03445,2.472353 -1.003423,3.461402 -0.05797,0.05479 -0.115932,0.109563 -0.175654,0.166003 -0.08695,0.08797 -0.08695,0.08797 -0.175654,0.177706 -0.845971,0.807787 -1.843033,0.979124 -2.980998,0.964943 -0.965049,-0.06041 -1.800013,-0.494321 -2.492092,-1.16349 -0.634079,-0.732407 -1.102246,-1.73528 -1.111469,-2.718246 -9e-4,-0.07777 -0.0017,-0.155552 -0.0027,-0.235685 -3.98e-4,-0.08318 -7.96e-4,-0.166365 -0.0013,-0.252067 -5.34e-4,-0.08606 -10e-4,-0.172132 -0.0015,-0.260808 -8.82e-4,-0.181669 -0.0014,-0.363339 -0.0018,-0.54501 -9.13e-4,-0.278367 -0.0039,-0.556672 -0.0069,-0.835024 -6.11e-4,-0.176547 -0.0012,-0.353094 -0.0014,-0.529641 -0.0012,-0.08338 -0.0023,-0.166743 -0.0036,-0.252641 2.81e-4,-0.07748 5.62e-4,-0.154961 8.54e-4,-0.23479 -5.14e-4,-0.102133 -5.14e-4,-0.102133 -0.001,-0.206329 0.09219,-0.4833 0.445864,-0.515239 0.877568,-0.461321 z"
     fill="#f4f3fd"
     id="path4"
     style="stroke-width:0.0936435" />
  <path
     d="m 2.9510578,11.114171 c 0.2316438,0.004 0.2316438,0.004 0.43328,0.0351 0.169799,0.181362 0.169799,0.181362 0.2810466,0.468029 0.057496,0.1389 0.1161419,0.277327 0.1756541,0.415376 0.031156,0.0724 0.062315,0.144797 0.094413,0.219389 0.1503324,0.298318 0.3531874,0.519102 0.5730716,0.769321 0,0.06178 0,0.123561 0,0.187212 0.1227959,0.06646 0.248583,0.127341 0.3747287,0.187212 0.1024065,0.05019 0.2048126,0.100392 0.3103222,0.152109 0.7431811,0.26927 1.6459131,0.265222 2.3654752,-0.06435 0.414565,-0.242894 0.7037724,-0.539047 0.9778077,-0.930207 0.0541,-0.07336 0.108203,-0.146727 0.163944,-0.222314 0.141973,-0.297899 0.203174,-0.588057 0.264213,-0.911193 0.04025,-0.176974 0.04025,-0.176974 0.133936,-0.27058 0.155914,-0.0091 0.312226,-0.01214 0.468411,-0.0117 0.127525,-3.74e-4 0.127525,-3.74e-4 0.257625,-7.49e-4 0.2107861,0.01245 0.2107861,0.01245 0.3044681,0.106056 0.02827,1.111902 -0.4264621,1.898987 -1.1746871,2.690068 -0.471036,0.432552 -0.995816,0.720203 -1.5947924,0.937155 -0.3293032,0.07789 -0.3293032,0.07789 -0.4157148,0.304218 -0.012433,0.257052 -0.019666,0.512125 -0.023055,0.769323 -0.00309,0.156376 -0.0062,0.31275 -0.00934,0.469126 -0.00445,0.247128 -0.0086,0.494254 -0.012281,0.741395 -0.00372,0.238105 -0.00854,0.476166 -0.013517,0.714247 -7.882e-4,0.0742 -0.00157,0.148409 -0.00238,0.224861 -0.011868,0.523241 -0.011868,0.523241 -0.2204699,0.731673 -0.2027341,0.01828 -0.2027341,0.01828 -0.4332801,0.0117 -0.076563,-0.0017 -0.1531264,-0.0034 -0.2320097,-0.0051 -0.058691,-0.0021 -0.117381,-0.0044 -0.1778498,-0.0065 C 5.6704002,18.525938 5.709676,18.200519 5.706634,17.871806 5.703994,17.715855 5.701324,17.559907 5.698594,17.403959 5.694724,17.157658 5.691264,16.911374 5.688804,16.665054 5.686204,16.427628 5.681934,16.190282 5.677368,15.952887 5.677063,15.879167 5.6767582,15.805445 5.6764442,15.729489 5.6712342,15.339884 5.6712342,15.339884 5.5101759,14.994594 5.2342179,14.818673 4.9285681,14.709449 4.6256267,14.589284 4.037261,14.342164 3.5770416,14.113614 3.1969735,13.583023 3.145408,13.511589 3.0938425,13.440156 3.0407145,13.366559 2.6043094,12.703682 2.411928,12.037485 2.4475159,11.242878 2.595428,11.095087 2.746636,11.122764 2.9510578,11.114171 Z"
     fill="#f4f4fd"
     id="path5"
     style="stroke-width:0.0936435" />
  <path
     d="m 3.6653844,10.77485 c 0.1982522,0.203594 0.2653042,0.309504 0.3747288,0.561634 0.041542,0.09255 0.083085,0.185098 0.1258855,0.280451 0.3425254,0.791921 0.3425254,0.791921 0.3425254,1.03003 0.050238,0.02317 0.1004745,0.04633 0.1522335,0.07021 0.2224951,0.117008 0.2224951,0.117008 0.5093969,0.310069 0.5309723,0.349931 1.0619462,0.3397 1.6804241,0.274967 0.6059328,-0.180703 1.0415321,-0.48954 1.395718,-1.012478 0.1404265,-0.278136 0.1927253,-0.549523 0.2444523,-0.854883 0.06824,-0.284087 0.217163,-0.456486 0.420838,-0.659994 0.368903,-0.184302 0.810291,-0.124511 1.2003031,-0.02925 0.288688,0.173071 0.374041,0.268515 0.485976,0.590886 -0.05461,1.072501 -0.560966,2.165875 -1.3291161,2.91421 -0.506939,0.426976 -1.0136123,0.699106 -1.633949,0.932035 -0.2600314,0.171115 -0.2600314,0.171115 -0.3015395,0.540427 -0.036689,0.681609 -0.011627,1.3675 0.00585,2.049455 0.00132,0.104494 0.00266,0.20899 0.00403,0.31665 0.00208,0.09415 0.00412,0.188297 0.00627,0.285298 C 7.3136974,18.683534 7.2205823,18.85624 7.0379459,19.105764 6.7044806,19.279261 6.3490231,19.318395 5.9796301,19.257508 5.4932138,19.102304 5.4932138,19.102304 5.3432599,18.819963 5.2333947,18.464642 5.2346846,18.129144 5.2396743,17.761276 c 2.651e-4,-0.07413 5.303e-4,-0.148268 8.034e-4,-0.224649 0.00105,-0.235567 0.0034,-0.471099 0.00578,-0.706654 9.428e-4,-0.160215 0.0018,-0.32043 0.00256,-0.480645 0.00207,-0.391682 0.00529,-0.783339 0.00914,-1.175008 C 5.1701537,15.16075 5.0823444,15.14719 4.9918745,15.13321 4.7104789,15.0833 4.4964958,15.008416 4.2391821,14.887654 4.1294093,14.836794 4.1294093,14.836794 4.0174189,14.784907 c -0.054342,-0.02595 -0.108686,-0.05188 -0.1646758,-0.07861 0,-0.06178 0,-0.12356 0,-0.187212 -0.1043388,-0.03512 -0.1043388,-0.03512 -0.2107849,-0.07094 -0.7441893,-0.335883 -1.1074928,-1.096228 -1.3902233,-1.820193 -0.1264208,-0.388171 -0.1939482,-0.754723 -0.202368,-1.16276 -0.00241,-0.07071 -0.00484,-0.141418 -0.00732,-0.214269 0.038773,-0.246283 0.1183376,-0.323869 0.3117861,-0.476073 0.4194604,-0.147924 0.8878747,-0.124369 1.3115514,0 z m -1.2178685,0.468028 c 0.032513,1.141976 0.3935214,2.018661 1.2120133,2.825725 0.4017986,0.325441 0.8959666,0.505447 1.3715429,0.697723 0.4990721,0.203029 0.4990721,0.203029 0.6016382,0.407994 0.013568,0.257045 0.021939,0.512092 0.026348,0.769323 0.0026,0.114247 0.0026,0.114247 0.00522,0.230804 0.00739,0.326559 0.013719,0.653137 0.020161,0.979717 0.00485,0.238092 0.010209,0.476167 0.015599,0.714247 0.00126,0.0742 0.00255,0.148409 0.00384,0.224861 3.234e-4,0.37813 3.234e-4,0.37813 0.1161763,0.731673 0.136582,0.005 0.2732172,0.0087 0.4098596,0.0117 0.076081,0.0021 0.1521604,0.0044 0.230546,0.0066 0.2227279,0.0017 0.2227279,0.0017 0.3900984,-0.205494 0.019598,-0.258161 0.02821,-0.507688 0.028911,-0.766031 0.00237,-0.15595 0.00473,-0.311899 0.00714,-0.467846 0.00269,-0.246302 0.00494,-0.492596 0.0067,-0.738906 0.00204,-0.237419 0.00573,-0.474771 0.00958,-0.712167 1.08e-5,-0.07372 2.17e-5,-0.147442 3.28e-5,-0.223398 0.00926,-0.509312 0.00926,-0.509312 0.1694001,-0.737866 0.2137186,-0.136938 0.434784,-0.212758 0.6740847,-0.296929 0.9957457,-0.3999 1.6710267,-1.140933 2.1722547,-2.071027 C 10.07018,12.169401 10.126133,11.721575 10.129448,11.242896 10.032578,11.125 10.032578,11.125 9.8216879,11.140149 c -0.128794,0.0016 -0.128794,0.0016 -0.260189,0.0033 -0.0861,8.42e-4 -0.172206,0.0017 -0.260919,0.0025 -0.06654,0.0011 -0.13308,0.0021 -0.201636,0.0033 -0.122601,0.23192 -0.198973,0.420845 -0.263481,0.678668 -0.239738,0.756426 -0.6456868,1.255393 -1.3291228,1.6615 C 6.88671,13.798455 6.0554596,13.77435 5.3875206,13.619953 5.1935691,13.547918 5.1935691,13.547918 4.8832469,13.395811 4.8098234,13.36685 4.7364002,13.337888 4.6607518,13.308059 4.461943,13.178167 4.419397,13.048895 4.3211597,12.834177 4.2631938,12.770466 4.2052279,12.706755 4.1455056,12.641115 3.8996666,12.301556 3.7886067,11.959629 3.6587974,11.563551 3.5845794,11.323938 3.5845794,11.323938 3.3843378,11.149272 3.180544,11.123022 3.180544,11.123022 2.9569129,11.131722 c -0.075476,5.62e-4 -0.1509527,0.0012 -0.2287162,0.0019 -0.186886,-0.0045 -0.186886,-0.0045 -0.2806808,0.109331 z"
     fill="#4c39e6"
     id="path6"
     style="stroke-width:0.0936435" />
  <path
     d="m 17.15562,11.43009 c 0.239447,0.20154 0.467542,0.404247 0.655774,0.65524 0,0.06178 0,0.12356 0,0.187212 0.06183,0 0.123662,0 0.187365,0 0.378361,0.710615 0.707207,1.35159 0.843139,2.152932 0.03092,0.03089 0.06183,0.06178 0.09368,0.09361 0.02677,0.153228 0.04731,0.307573 0.06441,0.462178 0.01503,0.125792 0.01503,0.125792 0.03037,0.254125 -0.0012,0.219755 -0.0012,0.219755 -0.188463,0.406966 -0.05721,0.183922 -0.1091,0.36951 -0.15809,0.555784 -0.354562,1.177018 -1.036029,2.059494 -2.087356,2.703597 -1.067553,0.546544 -2.307381,0.751695 -3.469168,0.391243 -1.213269,-0.43381 -2.335675,-1.250684 -2.904146,-2.433753 -0.4967281,-1.405115 -0.4894211,-2.585165 0.141256,-3.958135 0.654338,-1.202696 1.63337,-1.822449 2.883653,-2.302117 1.353366,-0.397887 2.7965,0.03976 3.907574,0.831118 z m -6.108739,1.075369 c -0.732845,1.025784 -0.843539,2.103036 -0.730061,3.324101 0.235075,1.032227 0.819356,1.917068 1.686279,2.527356 0.09276,0 0.185491,0 0.281045,0 0,0.06178 0,0.12356 0,0.187211 1.057182,0.522562 2.101271,0.659115 3.252896,0.385027 1.001126,-0.352156 1.909113,-1.000236 2.409388,-1.952557 0.327004,-0.700948 0.445723,-1.239912 0.450479,-2.007039 0.0019,-0.07608 0.0039,-0.152158 0.0059,-0.230541 0.0069,-1.067129 -0.412086,-1.896605 -1.152363,-2.658074 -0.378414,-0.343599 -0.760267,-0.612922 -1.218967,-0.838065 -0.0558,-0.02799 -0.111584,-0.05599 -0.169066,-0.08483 -1.719065,-0.72182 -3.661351,-0.0083 -4.815484,1.34741 z"
     fill="#442ce6"
     id="path7"
     style="stroke-width:0.0936435" />
  <path
     d="m 15.7094,12.319344 c 0.49115,0.284329 0.850729,0.60475 1.165173,1.076467 0.04046,0.06021 0.08091,0.120421 0.122591,0.182458 0.365138,0.662773 0.338096,1.426528 0.252137,2.157685 -0.241709,0.752217 -0.686998,1.338595 -1.358392,1.755109 -0.08791,0.05551 -0.175831,0.111011 -0.266409,0.168197 -0.600953,0.328489 -1.265676,0.271049 -1.935121,0.229627 -0.357165,-0.105306 -0.357165,-0.105306 -0.655776,-0.280817 -0.06812,-0.03656 -0.13622,-0.07312 -0.206393,-0.110791 -0.703071,-0.410565 -1.025811,-0.962539 -1.327653,-1.70282 -0.153332,-0.888599 -0.129394,-1.66078 0.360822,-2.4279 0.89534,-1.241832 2.432552,-1.704835 3.849021,-1.047215 z m -3.480879,1.148133 c -0.418019,0.663646 -0.528835,1.446548 -0.36558,2.20778 0.210637,0.71919 0.610494,1.179164 1.254098,1.555099 0.649995,0.318719 1.330956,0.379295 2.024413,0.172951 0.784521,-0.288797 1.245611,-0.741986 1.639439,-1.480141 0.205549,-0.601027 0.212063,-1.368069 -0.0088,-1.959139 -0.380752,-0.665769 -0.899219,-1.220315 -1.643831,-1.459665 -1.163101,-0.234739 -2.149868,0.02299 -2.899756,0.963115 z"
     fill="#442be6"
     id="path8"
     style="stroke-width:0.0936435" />
  <path
     d="m 18.748215,14.425474 c 0.09275,0.04633 0.09275,0.04633 0.187366,0.09361 0.03878,0.213904 0.03878,0.213904 0.05855,0.473879 0.007,0.08603 0.01401,0.172066 0.02121,0.260707 0.007,0.09973 0.007,0.09973 0.0139,0.201472 -0.09276,0.06178 -0.18549,0.123559 -0.281047,0.187211 0,-0.401569 0,-0.803138 0,-1.216875 z"
     fill="#3e20f0"
     id="path9"
     style="stroke-width:0.0936435" />
</svg>
